:FULLY-SPECIFIED
:FORCE-ALL-JOINTS-BE-3DOF
:DEGREES
1020
root 0.247966 13.5562 -35.3856 372.232 -28.2346 342.292
lfemur -69.8381 35.941 -3.97185
ltibia 82.0152 0 0
lfoot -12.7056 -8.44244 0
ltoes -6.03874 0 0
rfemur 10.1471 -8.72619 8.75125
rtibia 36.4311 0 0
rfoot -22.63 -26.1408 0
rtoes -31.5306 0 0
lowerback 10.3688 -0.82965 5.56105
upperback -1.75982 0.135763 8.15927
thorax -7.75778 -0.0162874 5.59203
lowerneck -5.25608 8.21969 3.62447
upperneck 7.98752 10.7922 -1.02116
head 3.8093 5.40734 -0.407822
lclavicle 7.59451e-14 -1.32845e-14 0
lhumerus 83.5855 -12.3219 27.0521
lradius 96.0527 0 0
lwrist 11.653 0 0
lhand -36.0988 30.8762 0
lfingers 7.12502 0 0
lthumb -9.20512 60.655 0
rclavicle 7.59451e-14 -1.32845e-14 0
rhumerus -77.3156 22.4927 -94.8494
rradius 112.06 0 0
rwrist -62.9691 0 0
rhand -10.1237 -25.2733 0
rfingers 7.12502 0 0
rthumb 15.8646 -54.6434 0
1021
root 0.246428 13.5528 -35.3769 372.275 -28.1762 342.313
lfemur -70.0031 36.0528 -4.08791
ltibia 82.2736 0 0
lfoot -12.9793 -8.47969 0
ltoes -6.09651 0 0
rfemur 10.2971 -8.72079 8.70661
rtibia 36.2748 0 0
rfoot -22.6272 -26.1803 0
rtoes -31.4674 0 0
lowerback 10.2874 -0.789171 5.47745
upperback -1.81465 0.173717 8.11367
thorax -7.7717 0.00554305 5.58204
lowerneck -5.30263 8.21476 3.61802
upperneck 8.01124 10.783 -0.998588
head 3.82443 5.4032 -0.397208
lclavicle 7.57867e-14 -1.19271e-15 0
lhumerus 83.5618 -9.24113 27.7396
lradius 95.2128 0 0
lwrist 11.4167 0 0
lhand -36.232 30.3028 0
lfingers 7.12502 0 0
lthumb -9.33364 60.0762 0
rclavicle 7.57867e-14 -1.19271e-15 0
rhumerus -77.3534 22.4523 -94.8543
rradius 111.987 0 0
rwrist -62.978 0 0
rhand -10.1238 -25.1576 0
rfingers 7.12502 0 0
rthumb 15.8645 -54.5277 0
1022
root 0.245268 13.5484 -35.3704 372.282 -28.1666 342.316
lfemur -70.0339 36.069 -4.10269
ltibia 82.3307 0 0
lfoot -13.0235 -8.48765 0
ltoes -6.09971 0 0
rfemur 10.3248 -8.72106 8.69588
rtibia 36.255 0 0
rfoot -22.6328 -26.1852 0
rtoes -31.4521 0 0
lowerback 10.2717 -0.78629 5.45838
upperback -1.82296 0.174185 8.11127
thorax -7.77163 0.00664391 5.58994
lowerneck -5.28349 8.22097 3.60439
upperneck 8.01174 10.7931 -0.998332
head 3.82019 5.40793 -0.395251
lclavicle 7.9233e-14 -4.23773e-15 0
lhumerus 83.5453 -8.75566 27.8866
lradius 95.0394 0 0
lwrist 11.309 0 0
lhand -36.2256 30.2731 0
lfingers 7.12502 0 0
lthumb -9.32751 60.0468 0
rclavicle 7.9233e-14 -4.23773e-15 0
rhumerus -77.37 22.4814 -94.8669
rradius 111.972 0 0
rwrist -62.9915 0 0
rhand -10.1203 -25.1405 0
rfingers 7.12502 0 0
rthumb 15.8679 -54.5103 0
1023
root 0.244108 13.544 -35.3639 372.285 -28.1617 342.317
lfemur -70.0505 36.0776 -4.11035
ltibia 82.3621 0 0
lfoot -13.0471 -8.49168 0
ltoes -6.10182 0 0
rfemur 10.3395 -8.72118 8.6898
rtibia 36.2451 0 0
rfoot -22.6361 -26.1877 0
rtoes -31.4437 0 0
lowerback 10.2632 -0.784925 5.44786
upperback -1.82727 0.174137 8.11022
thorax -7.77133 0.00710534 5.59465
lowerneck -5.27208 8.22469 3.59629
upperneck 8.01184 10.7992 -0.998079
head 3.81759 5.41076 -0.394061
lclavicle 8.08683e-14 -5.83434e-15 0
lhumerus 83.5357 -8.49533 27.9661
lradius 94.9456 0 0
lwrist 11.2468 0 0
lhand -36.2214 30.2623 0
lfingers 7.12502 0 0
lthumb -9.32344 60.0362 0
rclavicle 8.08683e-14 -5.83434e-15 0
rhumerus -77.3794 22.4989 -94.8742
rradius 111.964 0 0
rwrist -62.9995 0 0
rhand -10.1185 -25.1315 0
rfingers 7.12502 0 0
rthumb 15.8696 -54.5012 0
1024
root 0.242948 13.5396 -35.3574 372.287 -28.1606 342.317
lfemur -70.0567 36.0806 -4.11247
ltibia 82.3755 0 0
lfoot -13.0555 -8.49252 0
ltoes -6.1036 0 0
rfemur 10.3446 -8.72119 8.68672
rtibia 36.2431 0 0
rfoot -22.6382 -26.1884 0
rtoes -31.4401 0 0
lowerback 10.2596 -0.784883 5.44327
upperback -1.82848 0.173359 8.11046
thorax -7.77054 0.00694653 5.59758
lowerneck -5.26498 8.22705 3.59131
upperneck 8.01145 10.8029 -0.997692
head 3.8158 5.41255 -0.393268
lclavicle 8.09261e-14 -6.32673e-15 0
lhumerus 83.5305 -8.39999 27.9971
lradius 94.9091 0 0
lwrist 11.2129 0 0
lhand -36.2178 30.2715 0
lfingers 7.12502 0 0
lthumb -9.31996 60.0455 0
rclavicle 8.09261e-14 -6.32673e-15 0
rhumerus -77.3842 22.51 -94.8782
rradius 111.962 0 0
rwrist -63.0045 0 0
rhand -10.1183 -25.1289 0
rfingers 7.12502 0 0
rthumb 15.8698 -54.4986 0
1025
root 0.241788 13.5351 -35.3509 372.286 -28.1624 342.317
lfemur -70.0565 36.08 -4.11064
ltibia 82.3788 0 0
lfoot -13.0541 -8.49093 0
ltoes -6.10581 0 0
rfemur 10.3433 -8.72109 8.68503
rtibia 36.2473 0 0
rfoot -22.6399 -26.1876 0
rtoes -31.4392 0 0
lowerback 10.259 -0.785971 5.44197
upperback -1.82749 0.171636 8.1119
thorax -7.76902 0.00618665 5.60013
lowerneck -5.25877 8.22917 3.58705
upperneck 8.01048 10.8063 -0.997033
head 3.81399 5.41414 -0.392503
lclavicle 7.96397e-14 -6.05909e-15 0
lhumerus 83.5269 -8.40952 27.9984
lradius 94.9076 0 0
lwrist 11.1897 0 0
lhand -36.2133 30.3017 0
lfingers 7.12502 0 0
lthumb -9.31561 60.0759 0
rclavicle 7.96397e-14 -6.05909e-15 0
rhumerus -77.3867 22.5201 -94.8809
rradius 111.962 0 0
rwrist -63.0089 0 0
rhand -10.1194 -25.1308 0
rfingers 7.12502 0 0
rthumb 15.8688 -54.5006 0
1026
root 0.240628 13.5307 -35.3444 372.285 -28.1661 342.317
lfemur -70.0538 36.0777 -4.10644
ltibia 82.3795 0 0
lfoot -13.0483 -8.48768 0
ltoes -6.10921 0 0
rfemur 10.3389 -8.72091 8.68309
rtibia 36.2557 0 0
rfoot -22.6423 -26.186 0
rtoes -31.439 0 0
lowerback 10.2592 -0.787996 5.44135
upperback -1.8252 0.168755 8.11446
thorax -7.76652 0.00484488 5.60371
lowerneck -5.25005 8.23218 3.58111
upperneck 8.00884 10.811 -0.995966
head 3.81135 5.41638 -0.391395
lclavicle 7.72426e-14 -5.3756e-15 0
lhumerus 83.5224 -8.46378 27.9889
lradius 94.919 0 0
lwrist 11.16 0 0
lhand -36.2064 30.3538 0
lfingers 7.12502 0 0
lthumb -9.30892 60.1283 0
rclavicle 7.72426e-14 -5.3756e-15 0
rhumerus -77.3896 22.5345 -94.8843
rradius 111.965 0 0
rwrist -63.015 0 0
rhand -10.1213 -25.1353 0
rfingers 7.12502 0 0
rthumb 15.8669 -54.5052 0
1027
root 0.239468 13.5263 -35.3379 372.284 -28.1708 342.316
lfemur -70.0523 36.0757 -4.10146
ltibia 82.3856 0 0
lfoot -13.0434 -8.48353 0
ltoes -6.11455 0 0
rfemur 10.3348 -8.72066 8.67926
rtibia 36.2666 0 0
rfoot -22.6464 -26.1841 0
rtoes -31.4373 0 0
lowerback 10.2582 -0.790765 5.43876
upperback -1.8225 0.164502 8.11808
thorax -7.76278 0.00294039 5.60973
lowerneck -5.2354 8.2372 3.57107
upperneck 8.00643 10.8189 -0.994354
head 3.80705 5.42014 -0.389575
lclavicle 7.39682e-14 -4.62046e-15 0
lhumerus 83.5141 -8.50264 27.9875
lradius 94.9209 0 0
lwrist 11.1064 0 0
lhand -36.1955 30.4289 0
lfingers 7.12502 0 0
lthumb -9.29842 60.2039 0
rclavicle 7.39682e-14 -4.62046e-15 0
rhumerus -77.3954 22.5585 -94.8906
rradius 111.967 0 0
rwrist -63.0254 0 0
rhand -10.124 -25.1404 0
rfingers 7.12502 0 0
rthumb 15.8643 -54.5105 0
1028
root 0.238307 13.5219 -35.3314 372.284 -28.1755 342.316
lfemur -70.056 36.0759 -4.09729
ltibia 82.4048 0 0
lfoot -13.0449 -8.47924 0
ltoes -6.12258 0 0
rfemur 10.3343 -8.72037 8.67192
rtibia 36.2781 0 0
rfoot -22.6531 -26.1823 0
rtoes -31.4321 0 0
lowerback 10.2538 -0.794084 5.43159
upperback -1.8203 0.158663 8.12267
thorax -7.75756 0.000492358 5.61959
lowerneck -5.21139 8.24536 3.55453
upperneck 8.00317 10.8317 -0.99206
head 3.80026 5.42627 -0.386672
lclavicle 7.005e-14 -4.13784e-15 0
lhumerus 83.4995 -8.46595 28.013
lradius 94.8911 0 0
lwrist 11.0116 0 0
lhand -36.1791 30.5281 0
lfingers 7.12502 0 0
lthumb -9.28263 60.3037 0
rclavicle 7.005e-14 -4.13784e-15 0
rhumerus -77.4065 22.5974 -94.9016
rradius 111.967 0 0
rwrist -63.0423 0 0
rhand -10.1271 -25.1444 0
rfingers 7.12502 0 0
rthumb 15.8614 -54.5147 0
1029
root 0.237147 13.5175 -35.3249 372.285 -28.1793 342.316
lfemur -70.0688 36.0803 -4.09552
ltibia 82.4449 0 0
lfoot -13.0582 -8.47556 0
ltoes -6.13408 0 0
rfemur 10.3406 -8.72004 8.65944
rtibia 36.2883 0 0
rfoot -22.6635 -26.1811 0
rtoes -31.4213 0 0
lowerback 10.244 -0.797761 5.4172
upperback -1.81948 0.151023 8.12817
thorax -7.75061 -0.00248004 5.63472
lowerneck -5.17462 8.25779 3.52908
upperneck 7.99897 10.8514 -0.988946
head 3.79015 5.43561 -0.382316
lclavicle 6.57215e-14 -4.27193e-15 0
lhumerus 83.4759 -8.2936 28.0842
lradius 94.8074 0 0
lwrist 10.8581 0 0
lhand -36.1558 30.6522 0
lfingers 7.12502 0 0
lthumb -9.26009 60.4289 0
rclavicle 6.57215e-14 -4.27193e-15 0
rhumerus -77.4255 22.6564 -94.9195
rradius 111.964 0 0
rwrist -63.0682 0 0
rhand -10.1302 -25.1452 0
rfingers 7.12502 0 0
rthumb 15.8583 -54.5158 0
1030
root 0.235987 13.5131 -35.3184 372.289 -28.1813 342.317
lfemur -70.0945 36.0909 -4.09772
ltibia 82.5136 0 0
lfoot -13.0886 -8.47325 0
ltoes -6.14978 0 0
rfemur 10.3572 -8.71971 8.64019
rtibia 36.2954 0 0
rfoot -22.6785 -26.1812 0
rtoes -31.4028 0 0
lowerback 10.2267 -0.801601 5.39298
upperback -1.82096 0.14137 8.13448
thorax -7.74167 -0.00595763 5.6565
lowerneck -5.12167 8.2756 3.49232
upperneck 7.99374 10.8797 -0.984876
head 3.77592 5.44903 -0.376138
lclavicle 6.12159e-14 -5.36692e-15 0
lhumerus 83.4407 -7.92544 28.2202
lradius 94.6474 0 0
lwrist 10.6288 0 0
lhand -36.1239 30.8024 0
lfingers 7.12502 0 0
lthumb -9.22934 60.5804 0
rclavicle 6.12159e-14 -5.36692e-15 0
rhumerus -77.4549 22.741 -94.9463
rradius 111.955 0 0
rwrist -63.1055 0 0
rhand -10.1332 -25.1412 0
rfingers 7.12502 0 0
rthumb 15.8555 -54.512 0
1031
root 0.234827 13.5086 -35.3119 372.296 -28.1805 342.319
lfemur -70.137 36.1095 -4.10549
ltibia 82.6187 0 0
lfoot -13.1415 -8.47309 0
ltoes -6.17046 0 0
rfemur 10.3872 -8.71938 8.61253
rtibia 36.2976 0 0
rfoot -22.6991 -26.1828 0
rtoes -31.3745 0 0
lowerback 10.1998 -0.805413 5.35629
upperback -1.82562 0.129488 8.14153
thorax -7.7305 -0.00992124 5.68636
lowerneck -5.04913 8.29993 3.44183
upperneck 7.98738 10.9185 -0.979712
head 3.75672 5.46737 -0.367767
lclavicle 5.67669e-14 -7.767e-15 0
lhumerus 83.3911 -7.30134 28.4397
lradius 94.3891 0 0
lwrist 10.3061 0 0
lhand -36.082 30.9797 0
lfingers 7.12502 0 0
lthumb -9.18889 60.7595 0
rclavicle 5.67669e-14 -7.767e-15 0
rhumerus -77.4972 22.8563 -94.984
rradius 111.938 0 0
rwrist -63.1566 0 0
rhand -10.1356 -25.1303 0
rfingers 7.12502 0 0
rthumb 15.8531 -54.5013 0
